/* XPM */
static char *_226a5bb61f94da7e8dfad7712921129qimNmA6Y2oXmHuM6[] = {
/* columns rows colors chars-per-pixel */
"30 30 4 1 ",
"  c #4E4E4E",
". c #505050",
"X c gray72",
"o c gray86",
/* pixels */
"XooooooooooooooooooooooooooooX",
"o.  .. .  .. .  ..  . ..  . .o",
"o . . . . . . .  . . . . . ..o",
"o. . . . . . . .. . . . . .  o",
"o.. . . . . . .  . . . . . . o",
"o  . . . . . . .. . . . . . .o",
"o . . . . . . .  . . . . . . o",
"o. . . . . . . .. . . . . . .o",
"o . . . . . . .  . . . . . . o",
"o. . . . . . . .. . . . . . .o",
"o.. . . . . . .  . . . . . . o",
"o  . . . . . . .. . . . . . .o",
"o . . . . . . .  . . . . . ..o",
"o. . . . . . . .. . . . . .  o",
"o . . . . . . .  . . . . . ..o",
"o. . . . . . . .. . . . . .  o",
"o.. . . . . . . . . . .  . . o",
"o  . . . . . . . . . . .. . .o",
"o . . . . . . . . . . .  . . o",
"o. . . . . . . . . . . .. . .o",
"o . . . . . . . . . . .  . . o",
"o. . . . . . . . . . . .. . .o",
"o.. . . . . . . . . . .  . . o",
"o  . . . . . . . . . . .. . .o",
"o . . . . . . . . . . . . . .o",
"o. . . . . . . . . . . . . . o",
"o . . . . . . . . . . . . .  o",
"o. . .   . . .   . . .   . . o",
"o.      .       .       .    o",
"XooooooooooooooooooooooooooooX"
};
