/* XPM */
static char *_64c8f343dff40e196f0891cb624fb43MlOK8vPIN3fL6ls1[] = {
/* columns rows colors chars-per-pixel */
"30 30 14 1 ",
"  c None",
". c #4A450C",
"X c #867D17",
"o c #877D17",
"O c #897F17",
"+ c #8B8A19",
"@ c #948A19",
"# c #F4E229",
"$ c #F8E62A",
"% c #FCEA2B",
"& c #FAFA2E",
"* c #FFFA2E",
"= c #FFFE2E",
"- c #FFFF32",
/* pixels */
"                              ",
"                              ",
"                              ",
"                              ",
"                              ",
"     .@oOOOOOOOOOOOOOOo@.     ",
"     +-&==============&-+     ",
"     o*#$$$$$$$$$$$$$$#*o     ",
"     O=$%%%%%%%%%%%%%%$=O     ",
"     O=$%%%%%%%%%%%%%%$=O     ",
"     O=$%%%%%%%%%%%%%%$=O     ",
"     O=$%%%%%%%%%%%%%%$=O     ",
"     O=$%%%%%%%%%%%%%%$=O     ",
"     O=$%%%%%%%%%%%%%%$=O     ",
"     O=$%%%%%%%%%%%%%%$=O     ",
"     O=$%%%%%%%%%%%%%%$=O     ",
"     O=$%%%%%%%%%%%%%%$=O     ",
"     O=$%%%%%%%%%%%%%%$=O     ",
"     O=$%%%%%%%%%%%%%%$=O     ",
"     O=$%%%%%%%%%%%%%%$=O     ",
"     O=$%%%%%%%%%%%%%%$=O     ",
"     O=$%%%%%%%%%%%%%%$=O     ",
"     o*#$$$$$$$$$$$$$$#*o     ",
"     +-&==============&-+     ",
"     .@oOOOOOOOOOOOOOOo@.     ",
"                              ",
"                              ",
"                              ",
"                              ",
"                              "
};
