/* XPM */
static char *_ac78bd0a20e4658e75fe5f3fc7425b98Nv8jMhMeEhkS5Lu[] = {
/* columns rows colors chars-per-pixel */
"30 30 4 1 ",
"  c #FF0101",
". c #E4A4A4",
"X c #DBDADA",
"o c gray86",
/* pixels */
".oooooooooooooooooooooooooooo.",
"o                            o",
"o                            o",
"o                            o",
"o                            o",
"o                            o",
"o                            o",
"o                            o",
"o                            o",
"o                            o",
"o                            o",
"o                            o",
"o                            o",
"o                            o",
"o                            o",
"o                            o",
"o                            o",
"o                            o",
"o                            o",
"o                            o",
"o                            o",
"o                            o",
"o                            o",
"o                            o",
"o                            o",
"o                            o",
"o                            o",
"o                            o",
"o                            o",
".oooooooooooooooooooooooooooo."
};
