/* XPM */
static char *c6f81a57436c4f1083870d46bd60c760VtbKZjksbh5pa3uo[] = {
/* columns rows colors chars-per-pixel */
"30 30 2 1 ",
"  c black",
". c white",
/* pixels */
"                              ",
"                              ",
"  ..........................  ",
"  ..........................  ",
"  ..........................  ",
"  ..........................  ",
"  ..........................  ",
"  ..........................  ",
"  ..........................  ",
"  ..........................  ",
"  ..........................  ",
"  ..........................  ",
"  ..........................  ",
"  ..........................  ",
"  ..........................  ",
"  ..........................  ",
"  ..........................  ",
"  ..........................  ",
"  ..........................  ",
"  ..........................  ",
"  ..........................  ",
"  ..........................  ",
"  ..........................  ",
"  ..........................  ",
"  ..........................  ",
"  ..........................  ",
"  ..........................  ",
"  ..........................  ",
"                              ",
"                              "
};
